<svg width="37" height="38" viewBox="0 0 37 38" fill="none" xmlns="http://www.w3.org/2000/svg">
<path d="M23.6059 17.9725C23.3483 17.9715 23.0933 18.0242 22.8573 18.1274C22.6212 18.2305 22.4094 18.3818 22.2352 18.5716C22.061 18.7613 21.9285 18.9853 21.8459 19.2292C21.7634 19.4731 21.7327 19.7316 21.7559 19.988H25.5669C25.5915 19.722 25.5582 19.4537 25.4691 19.2018C25.3801 18.9499 25.2374 18.7202 25.0511 18.5287C24.8647 18.3371 24.639 18.1882 24.3895 18.0922C24.14 17.9962 23.8727 17.9554 23.6059 17.9725Z" fill="#252525"/>
<path d="M13.8566 20.0249H11.5811V23.6121H13.4311C15.2811 23.6121 16.0951 23.0019 16.0951 21.7631C16.0951 20.5242 15.2441 20.0249 13.8566 20.0249Z" fill="#252525"/>
<path d="M15.4661 16.7336C15.4661 15.7536 14.8186 15.1619 13.7086 15.1619H11.5811V18.3793H13.1536C14.8001 18.3793 15.4661 17.7876 15.4661 16.7336Z" fill="#252525"/>
<path d="M18.5 0.979553C14.8411 0.979553 11.2643 2.06402 8.22196 4.09581C5.17965 6.1276 2.80846 9.01546 1.40824 12.3942C0.00801575 15.773 -0.358346 19.4908 0.355481 23.0777C1.06931 26.6645 2.83126 29.9593 5.41853 32.5453C8.0058 35.1312 11.3022 36.8923 14.8908 37.6058C18.4795 38.3193 22.1992 37.9531 25.5796 36.5536C28.9601 35.154 31.8494 32.784 33.8822 29.7432C35.915 26.7024 37 23.1274 37 19.4703C37 17.0421 36.5215 14.6376 35.5918 12.3942C34.6621 10.1508 33.2994 8.1124 31.5815 6.39537C29.8636 4.67835 27.8242 3.31633 25.5796 2.38708C23.3351 1.45783 20.9295 0.979553 18.5 0.979553ZM14.245 25.3874H9.25001V13.3684H14.245C16.4095 13.3684 17.834 14.4963 17.834 16.3269C17.8595 16.9419 17.665 17.5458 17.2853 18.0304C16.9055 18.515 16.3655 18.8485 15.762 18.9711C16.1445 18.9799 16.5211 19.0667 16.8688 19.2261C17.2166 19.3854 17.5282 19.614 17.7845 19.8979C18.0408 20.1818 18.2364 20.5149 18.3594 20.877C18.4825 21.239 18.5303 21.6224 18.5 22.0035C18.5 24.1485 16.65 25.3874 14.245 25.3874ZM20.8125 14.2929H26.3625V15.2174H20.8125V14.2929ZM27.75 21.4118H21.645V21.6707C21.6132 21.9517 21.642 22.2362 21.7295 22.5051C21.817 22.774 21.9611 23.0211 22.1522 23.2296C22.3433 23.4381 22.5769 23.6033 22.8373 23.7139C23.0976 23.8246 23.3787 23.8782 23.6615 23.8711C24.0586 23.9328 24.4646 23.8488 24.8046 23.6347C25.1446 23.4206 25.3957 23.0908 25.5115 22.7062H27.75C27.5507 23.5938 27.031 24.3768 26.2904 24.9056C25.5498 25.4343 24.6402 25.6717 23.7355 25.5723C23.1573 25.6306 22.5733 25.5616 22.0247 25.3702C21.476 25.1787 20.976 24.8694 20.5598 24.4639C20.1436 24.0585 19.8213 23.5669 19.6157 23.0236C19.4101 22.4803 19.326 21.8986 19.3695 21.3194V20.5058C19.3302 19.9445 19.4128 19.3814 19.6117 18.8551C19.8106 18.3288 20.121 17.8516 20.5216 17.4564C20.9223 17.0613 21.4037 16.7573 21.9329 16.5656C22.4621 16.3738 23.0265 16.2987 23.5875 16.3454C24.1466 16.3096 24.7069 16.3939 25.2307 16.5927C25.7544 16.7914 26.2295 17.1001 26.6239 17.4978C27.0183 17.8955 27.3229 18.3731 27.5172 18.8983C27.7114 19.4235 27.7908 19.9843 27.75 20.5428V21.4118Z" fill="#252525"/>
</svg>
