<svg width="40" height="39" viewBox="0 0 40 39" fill="none" xmlns="http://www.w3.org/2000/svg">
<path d="M19.5097 0C8.73155 0 0 8.72845 0 19.5C0 30.2715 8.73281 39 19.5097 39C30.2879 39 39.0195 30.2715 39.0195 19.5C39.0195 8.72845 30.2867 0 19.5097 0ZM29.0922 13.3594L25.89 28.4411C25.6534 29.5104 25.0165 29.7696 24.1279 29.2664L19.2504 25.6733L16.8979 27.9378C16.6387 28.197 16.4184 28.4172 15.9149 28.4172L16.261 23.4554L25.2997 15.293C25.6937 14.9471 25.2129 14.7508 24.693 15.0968L13.5221 22.1256L8.70764 20.6235C7.66166 20.2938 7.63775 19.578 8.92791 19.0748L27.7378 11.8245C28.6113 11.51 29.3741 12.0372 29.0909 13.3581L29.0922 13.3594Z" fill="#1C1C1C"/>
</svg>
