<svg width="40" height="39" viewBox="0 0 40 39" fill="none" xmlns="http://www.w3.org/2000/svg">
<path d="M24.8952 17.9205C24.6236 17.9194 24.3546 17.9751 24.1057 18.0838C23.8568 18.1926 23.6333 18.3522 23.4496 18.5523C23.266 18.7523 23.1261 18.9886 23.0391 19.2458C22.9521 19.503 22.9197 19.7756 22.9442 20.046H26.9633C26.9893 19.7655 26.9541 19.4826 26.8602 19.2169C26.7663 18.9512 26.6158 18.709 26.4193 18.507C26.2227 18.305 25.9847 18.148 25.7216 18.0467C25.4585 17.9455 25.1766 17.9024 24.8952 17.9205Z" fill="#1C1C1C"/>
<path d="M14.6134 20.0847H12.2136V23.8677H14.1647C16.1157 23.8677 16.9742 23.2242 16.9742 21.9177C16.9742 20.6112 16.0767 20.0847 14.6134 20.0847Z" fill="#1C1C1C"/>
<path d="M16.3108 16.614C16.3108 15.5805 15.6279 14.9565 14.4573 14.9565H12.2136V18.3495H13.872C15.6084 18.3495 16.3108 17.7255 16.3108 16.614Z" fill="#1C1C1C"/>
<path d="M19.5104 0C15.6516 0 11.8795 1.14365 8.67101 3.28634C5.46254 5.42903 2.96185 8.47451 1.48515 12.0377C0.00845355 15.6008 -0.377917 19.5216 0.374896 23.3043C1.12771 27.0869 2.98589 30.5614 5.71447 33.2886C8.44305 36.0157 11.9195 37.8729 15.7041 38.6253C19.4888 39.3777 23.4117 38.9916 26.9767 37.5156C30.5418 36.0397 33.5889 33.5404 35.7327 30.3336C37.8765 27.1269 39.0208 23.3567 39.0208 19.5C39.0208 16.9392 38.5162 14.4035 37.5357 12.0377C36.5552 9.67182 35.1181 7.52216 33.3063 5.71142C31.4946 3.90067 29.3438 2.46432 26.9767 1.48435C24.6096 0.504382 22.0726 0 19.5104 0ZM15.023 25.74H9.75521V13.065H15.023C17.3057 13.065 18.808 14.2545 18.808 16.185C18.835 16.8336 18.6298 17.4705 18.2293 17.9815C17.8289 18.4925 17.2593 18.8442 16.6229 18.9735C17.0262 18.9828 17.4234 19.0743 17.7902 19.2424C18.1569 19.4105 18.4855 19.6516 18.7558 19.9509C19.0261 20.2503 19.2324 20.6016 19.3622 20.9834C19.4919 21.3653 19.5424 21.7695 19.5104 22.1715C19.5104 24.4335 17.5594 25.74 15.023 25.74ZM21.9492 14.04H27.8023V15.015H21.9492V14.04ZM29.2656 21.5475H22.8272V21.8205C22.7936 22.1168 22.824 22.4169 22.9163 22.7005C23.0086 22.984 23.1606 23.2446 23.3621 23.4645C23.5637 23.6844 23.81 23.8585 24.0846 23.9752C24.3591 24.0919 24.6555 24.1485 24.9538 24.141C25.3726 24.206 25.8008 24.1175 26.1594 23.8917C26.518 23.6659 26.7827 23.3181 26.9049 22.9125H29.2656C29.0554 23.8485 28.5074 24.6743 27.7263 25.2319C26.9452 25.7895 25.986 26.0398 25.0319 25.935C24.4221 25.9965 23.8062 25.9238 23.2276 25.7219C22.6489 25.5199 22.1216 25.1937 21.6827 24.7662C21.2438 24.3386 20.9039 23.8202 20.687 23.2472C20.4702 22.6743 20.3815 22.0608 20.4274 21.45V20.592C20.386 20.0001 20.4731 19.4063 20.6828 18.8512C20.8925 18.2961 21.2199 17.793 21.6425 17.3762C22.065 16.9594 22.5727 16.6389 23.1308 16.4367C23.6889 16.2345 24.2842 16.1552 24.8758 16.2045C25.4654 16.1667 26.0563 16.2556 26.6087 16.4653C27.1611 16.6749 27.6621 17.0004 28.078 17.4198C28.494 17.8392 28.8152 18.3428 29.02 18.8968C29.2249 19.4507 29.3086 20.042 29.2656 20.631V21.5475Z" fill="#1C1C1C"/>
</svg>
