<svg width="37" height="38" viewBox="0 0 37 38" fill="none" xmlns="http://www.w3.org/2000/svg">
<path d="M18.5 0.455688C8.27965 0.455688 0 8.73239 0 18.9465C0 29.1605 8.28084 37.4372 18.5 37.4372C28.7204 37.4372 37 29.1605 37 18.9465C37 8.73239 28.7192 0.455688 18.5 0.455688ZM27.5865 13.1237L24.5501 27.4248C24.3257 28.4388 23.7218 28.6845 22.8791 28.2073L18.2541 24.8003L16.0234 26.9476C15.7775 27.1933 15.5686 27.4021 15.0912 27.4021L15.4195 22.6971L23.9903 14.9572C24.3639 14.6292 23.908 14.4431 23.415 14.7711L12.8223 21.4361L8.25697 20.0118C7.26513 19.6992 7.24245 19.0204 8.46584 18.5432L26.3022 11.6683C27.1306 11.37 27.8538 11.8699 27.5853 13.1225L27.5865 13.1237Z" fill="#252525"/>
</svg>
