<svg width="54" height="29" viewBox="0 0 54 29" fill="none" xmlns="http://www.w3.org/2000/svg">
<path d="M2.12141 14.8181C1.73089 15.2086 1.09772 15.2086 0.7072 14.8181C0.316676 14.4275 0.316676 13.7944 0.7072 13.4039L13.404 0.70709C13.7945 0.316566 14.4277 0.316566 14.8182 0.70709C15.2087 1.09761 15.2087 1.73078 14.8182 2.1213L2.12141 14.8181Z" fill="#1C1C1C"/>
<path d="M0.707107 15.1212C0.316583 14.7307 0.316582 14.0975 0.707107 13.707C1.09763 13.3165 1.7308 13.3165 2.12132 13.707L14.8181 26.4038C15.2086 26.7943 15.2086 27.4275 14.8181 27.818C14.4276 28.2085 13.7944 28.2085 13.4039 27.818L0.707107 15.1212Z" fill="#1C1C1C"/>
<rect x="2" y="14.9999" width="2" height="52" rx="1" transform="rotate(-90 2 14.9999)" fill="#1C1C1C"/>
</svg>
