<svg width="45" height="62" viewBox="0 0 45 62" fill="none" xmlns="http://www.w3.org/2000/svg">
<path d="M20.1213 6.364C18.9497 5.19242 18.9497 3.29293 20.1213 2.12136V2.12136C21.2929 0.949783 23.1924 0.949783 24.364 2.12136L42.2033 19.9607C43.3749 21.1323 43.3749 23.0318 42.2033 24.2033V24.2033C41.0317 25.3749 39.1322 25.3749 37.9607 24.2033L20.1213 6.364Z" fill="#929292"/>
<path d="M19.9607 2.12132C21.1322 0.949746 23.0317 0.949747 24.2033 2.12132V2.12132C25.3749 3.29289 25.3749 5.19239 24.2033 6.36396L6.36395 24.2033C5.19238 25.3749 3.29289 25.3749 2.12131 24.2033V24.2033C0.949741 23.0317 0.949741 21.1322 2.12131 19.9607L19.9607 2.12132Z" fill="#929292"/>
<rect x="19" y="3" width="6" height="58.4225" rx="3" fill="#929292"/>
</svg>
